<?xml version="1.0" encoding="iso-8859-1"?>
<!-- Generator: Adobe Illustrator 19.0.0, SVG Export Plug-In . SVG Version: 6.00 Build 0)  -->
<svg version="1.1" id="Capa_1" xmlns="http://www.w3.org/2000/svg" xmlns:xlink="http://www.w3.org/1999/xlink" x="0px" y="0px"
	 viewBox="0 0 480 480" style="enable-background:new 0 0 480 480;" xml:space="preserve">
<g>
	<g>
		<path d="M289.172,76.688l-8,8l-3.712-3.712c-10.853-10.79-26.919-14.426-41.36-9.36L212.484,48h-51.312V32h-32V0h-48v480h48v-40
			h16v8c0,4.418,3.582,8,8,8h32c4.418,0,8-3.582,8-8v-32c0-4.418-3.582-8-8-8h-32c-4.418,0-8,3.582-8,8v8h-16V112h32V96h28.688
			l10.928,10.928c-5.064,14.441-1.428,30.506,9.36,41.36L213.86,152l-8,8l35.312,35.312L324.484,112L289.172,76.688z M113.172,464
			h-16V16h16V464z M161.172,424h16v16h-16V424z M145.172,96h-16V48h16V96z M210.14,91.72l-0.968,0.968L196.484,80h-35.312V64h44.688
			l16,16l-0.976,0.976L210.14,91.72z M221.46,136.976c-9.373-9.372-9.375-24.568-0.003-33.941c0.001-0.001,0.002-0.002,0.003-0.003
			l10.744-10.744c9.372-9.373,24.568-9.375,33.941-0.003c0.001,0.001,0.002,0.002,0.003,0.003L269.861,96l-44.688,44.688
			L221.46,136.976z M228.484,160l60.688-60.688L301.86,112l-60.688,60.688L228.484,160z"/>
	</g>
</g>
<g>
	<g>
		<rect x="337.174" y="132.69" transform="matrix(0.7071 -0.7071 0.7071 0.7071 -0.7258 286.2518)" width="16" height="22.624"/>
	</g>
</g>
<g>
	<g>
		<rect x="313.174" y="156.687" transform="matrix(0.7071 -0.7071 0.7071 0.7071 -24.7239 276.3099)" width="16" height="22.624"/>
	</g>
</g>
<g>
	<g>
		<rect x="289.174" y="180.668" transform="matrix(0.7071 -0.7071 0.7071 0.7071 -48.7106 266.3633)" width="16" height="22.624"/>
	</g>
</g>
<g>
	<g>
		<rect x="265.174" y="204.69" transform="matrix(0.7071 -0.7071 0.7071 0.7071 -72.7257 256.4284)" width="16" height="22.624"/>
	</g>
</g>
<g>
	<g>
		<rect x="305.172" y="220.679" transform="matrix(0.7071 -0.7071 0.7071 0.7071 -72.3168 289.3935)" width="16" height="22.624"/>
	</g>
</g>
<g>
	<g>
		<rect x="329.172" y="196.658" transform="matrix(0.7071 -0.7071 0.7071 0.7071 -48.3016 299.3295)" width="16" height="22.624"/>
	</g>
</g>
<g>
	<g>
		<rect x="353.172" y="172.685" transform="matrix(0.7071 -0.7071 0.7071 0.7071 -24.3205 309.2784)" width="16" height="22.624"/>
	</g>
</g>
<g>
	<g>
		<rect x="377.172" y="148.687" transform="matrix(0.7071 -0.7071 0.7071 0.7071 -0.3224 319.2203)" width="16" height="22.624"/>
	</g>
</g>
<g>
	<g>
		<rect x="281.172" y="244.684" transform="matrix(0.7071 -0.7071 0.7071 0.7071 -96.3204 279.455)" width="16" height="22.624"/>
	</g>
</g>
<g>
</g>
<g>
</g>
<g>
</g>
<g>
</g>
<g>
</g>
<g>
</g>
<g>
</g>
<g>
</g>
<g>
</g>
<g>
</g>
<g>
</g>
<g>
</g>
<g>
</g>
<g>
</g>
<g>
</g>
</svg>
