<?xml version="1.0" encoding="iso-8859-1"?>
<!-- Generator: Adobe Illustrator 19.0.0, SVG Export Plug-In . SVG Version: 6.00 Build 0)  -->
<svg version="1.1" id="Capa_1" xmlns="http://www.w3.org/2000/svg" xmlns:xlink="http://www.w3.org/1999/xlink" x="0px" y="0px"
	 viewBox="0 0 480 480" style="enable-background:new 0 0 480 480;" xml:space="preserve">
<g>
	<g>
		<path d="M448,176c-17.673,0-32,14.327-32,32v32H152c13.255,0,24-10.745,24-24v-16c0-13.255-10.745-24-24-24H88
			c-13.255,0-24,10.745-24,24V32C64,14.327,49.673,0,32,0S0,14.327,0,32v416c0,17.673,14.327,32,32,32s32-14.327,32-32V336h96v24
			c0,13.255,10.745,24,24,24h192c13.255,0,24-10.745,24-24v-24h16v112c0,17.673,14.327,32,32,32c17.673,0,32-14.327,32-32V208
			C480,190.327,465.673,176,448,176z M48,448c0,8.837-7.163,16-16,16s-16-7.163-16-16V32c0-8.837,7.163-16,16-16s16,7.163,16,16V448
			z M80,200c0-4.418,3.582-8,8-8h64c4.418,0,8,3.582,8,8v16c0,4.418-3.582,8-8,8H88c-4.418,0-8-3.582-8-8V200z M64,216
			c0,13.255,10.745,24,24,24H64V216z M160,320H64v-64h96V320z M384,360c0,4.418-3.582,8-8,8H184c-4.418,0-8-3.582-8-8v-24v-16v-64
			h208V360z M416,320h-16v-64h16V320z M464,448c0,8.837-7.163,16-16,16s-16-7.163-16-16V208c0-8.837,7.163-16,16-16s16,7.163,16,16
			V448z"/>
	</g>
</g>
<g>
</g>
<g>
</g>
<g>
</g>
<g>
</g>
<g>
</g>
<g>
</g>
<g>
</g>
<g>
</g>
<g>
</g>
<g>
</g>
<g>
</g>
<g>
</g>
<g>
</g>
<g>
</g>
<g>
</g>
</svg>
