<svg id="Capa_1" enable-background="new 0 0 512 512" height="512" viewBox="0 0 512 512" width="512" xmlns="http://www.w3.org/2000/svg"><g><g><path d="m502 475.714h-10.721v-343.478c9.281-1.244 16.469-9.235 16.469-18.9v-33.265c0-10.525-8.517-19.088-18.985-19.088h-64.521v-12.348c0-17.837-14.43-32.349-32.167-32.349h-272.149c-17.737 0-32.167 14.512-32.167 32.349v12.349h-64.522c-10.484 0-19.014 8.562-19.014 19.088v33.265c0 9.657 7.186 17.641 16.469 18.896v343.481h-10.692c-5.522 0-10 4.478-10 10s4.478 10 10 10h492c5.522 0 10-4.478 10-10s-4.478-10-10-10zm-394.241-427.079c0-6.809 5.458-12.349 12.167-12.349h272.148c6.709 0 12.167 5.54 12.167 12.349v12.349h-296.482zm103.327 63.789h-186.862v-31.44h463.524v31.44h-186.862c-5.522 0-10 4.478-10 10s4.478 10 10 10h170.394v343.29h-36.465v-245.263c0-.336-.017-.673-.051-1.008-.511-5.067-4.923-8.992-9.998-8.992h-49.739c-29.802-35.136-72.912-55.186-119.041-55.186-46.099 0-89.209 20.053-119.037 55.186h-49.749c-5.454 0-10.043 4.53-10.043 10v245.263h-36.465v-343.29h170.394c5.522 0 10-4.478 10-10s-4.478-10-10-10zm168.571 149.38h-25.283c-19.287-31.345-52.115-51.597-88.389-54.765v-21.397c37.8 2.748 72.547 20.999 96.5 51.043 1.897 2.38 4.775 3.767 7.819 3.767h30.517zm35.157-7.058v63.558h-20.988v-42.384zm-20.988 83.558h20.988v58.733h-20.988zm-275.652 0v58.733h-21.017v-58.733zm-21.017-20v-63.571l21.017 21.189v42.382zm14.003-77.853h30.507c3.042 0 5.919-1.385 7.816-3.763 23.978-30.045 58.726-48.297 96.502-51.047v21.397c-36.274 3.168-69.102 23.42-88.388 54.765h-25.258zm-14.003 235.263v-58.677h21.017v58.677zm184.171-103.387c9.391 4.156 20.205 2.083 29.467-5.162 10.158 12.678 15.438 31.412 14.679 52.923-.004.117-.006.235-.006.353 0 18.375-7.184 35.899-19.654 48.873-1.68-24.208-14.616-32.319-25.388-39.052-11.433-7.146-20.463-12.791-19.828-40.744.091-3.961-2.167-7.602-5.754-9.283-3.59-1.681-7.83-1.085-10.815 1.519-19.634 17.122-37.596 56.734-38.005 87.823-12.417-12.61-19.576-29.368-19.576-46.706 0-15.099 7.229-33.414 19.829-50.248 16.015-21.377 33.551-48.354 44.438-87.757 1.2.982 2.408 2.191 3.601 3.61 8.093 9.628 12.691 25.495 10.696 36.916-4.012 23.091 2.088 40.637 16.316 46.935zm-55.156 103.387c-1.888-17.606 6.139-42.865 17.062-61.214 5.241 19.377 17.198 26.851 26.591 32.722 9.748 6.093 16.608 10.382 16.218 28.492zm100.475 0c11.997-15.588 18.781-34.941 18.82-55.096 1.078-31.707-9.154-59.141-28.087-75.288-2.077-1.771-4.785-2.623-7.504-2.34-2.716.276-5.2 1.651-6.877 3.806-4.516 5.803-10.103 8.776-13.577 7.243-4.064-1.8-7.271-10.46-4.708-25.215 3.003-17.19-3.201-39.073-15.089-53.217-7.589-9.03-16.551-13.804-25.914-13.804-4.654 0-8.693 3.211-9.742 7.746-9.66 41.752-27.512 69.472-43.702 91.084-15.138 20.224-23.82 42.907-23.82 62.236 0 19.143 6.633 37.699 18.409 52.844h-46.682v-193.91h25.178c3.656 0 7.021-1.995 8.774-5.203 16.865-30.848 48.998-50.011 83.859-50.011s66.994 19.163 83.86 50.011c1.754 3.208 5.118 5.203 8.774 5.203h25.206v193.91h-47.178zm67.179 0v-58.677h20.988v58.677z"/><path d="m255.985 132.424h.058c5.522 0 9.972-4.478 9.972-10s-4.507-10-10.029-10-10 4.478-10 10 4.477 10 9.999 10z"/></g></g></svg>