<?xml version="1.0" encoding="iso-8859-1"?>
<!-- Generator: Adobe Illustrator 19.0.0, SVG Export Plug-In . SVG Version: 6.00 Build 0)  -->
<svg version="1.1" id="Capa_1" xmlns="http://www.w3.org/2000/svg" xmlns:xlink="http://www.w3.org/1999/xlink" x="0px" y="0px"
	 viewBox="0 0 480 480" style="enable-background:new 0 0 480 480;" xml:space="preserve">
<g>
	<g>
		<path d="M456,96H336V56c-0.035-30.913-25.087-55.965-56-56h-80c-30.913,0.035-55.965,25.087-56,56v40H24
			c-13.255,0-24,10.745-24,24v304c0,13.255,10.745,24,24,24h8v32h64v-32h288v32h64v-32h8c13.255,0,24-10.745,24-24V120
			C480,106.745,469.255,96,456,96z M160,56c0.026-22.08,17.92-39.974,40-40h80c22.08,0.026,39.974,17.92,40,40v40h-16V56
			c0-13.255-10.745-24-24-24h-80c-13.255,0-24,10.745-24,24v40h-16V56z M288,56v40h-96V56c0-4.418,3.582-8,8-8h80
			C284.418,48,288,51.582,288,56z M80,464H48v-16h32V464z M432,464h-32v-16h32V464z M464,424c0,4.418-3.582,8-8,8H24
			c-4.418,0-8-3.582-8-8V120c0-4.418,3.582-8,8-8h432c4.418,0,8,3.582,8,8V424z"/>
	</g>
</g>
<g>
	<g>
		<path d="M240,128c-79.529,0-144,64.471-144,144s64.471,144,144,144s144-64.471,144-144C383.907,192.509,319.491,128.093,240,128z
			 M240,400c-70.692,0-128-57.308-128-128s57.308-128,128-128s128,57.308,128,128C367.921,342.66,310.66,399.921,240,400z"/>
	</g>
</g>
<g>
	<g>
		<path d="M288,224v-48h-96v48h-48v96h48v48h96v-48h48v-96H288z M320,304h-48v48h-64v-48h-48v-64h48v-48h64v48h48V304z"/>
	</g>
</g>
<g>
</g>
<g>
</g>
<g>
</g>
<g>
</g>
<g>
</g>
<g>
</g>
<g>
</g>
<g>
</g>
<g>
</g>
<g>
</g>
<g>
</g>
<g>
</g>
<g>
</g>
<g>
</g>
<g>
</g>
</svg>
