<svg height="479pt" viewBox="0 -39 479.99958 479" width="479pt" xmlns="http://www.w3.org/2000/svg"><path d="m32.238281 6.554688-32 128c-.597656 2.390624-.0625 4.925781 1.453125 6.867187 1.519532 1.941406 3.84375 3.078125 6.308594 3.078125h24v248c0 4.417969 3.582031 8 8 8h400c4.417969 0 8-3.582031 8-8v-248h24c2.464844 0 4.789062-1.136719 6.304688-3.078125 1.519531-1.941406 2.054687-4.476563 1.457031-6.867187l-32-128c-.894531-3.558594-4.09375-6.054688-7.761719-6.054688h-400c-3.667969 0-6.867188 2.496094-7.761719 6.054688zm413.511719 57.945312h-411.503906l4-16h403.503906zm4 16 4 16h-427.503906l4-16zm-289.75 304v-16h16v16zm8-96h144c13.253906 0 24 10.746094 24 24v40h-192v-40c0-13.253906 10.746094-24 24-24zm11.105469-16 8.796875-26.527344c1.09375-3.28125 4.167968-5.488281 7.625-5.472656h88.945312c3.445313 0 6.503906 2.203125 7.589844 5.472656l8.832031 26.527344zm108.894531 96v16h-96v-16zm16 16v-16h16v16zm32 0v-16h8c4.417969 0 8-3.582031 8-8v-48c-.054688-19.738281-14.511719-36.476562-34.03125-39.398438l-10.769531-32.195312c-3.261719-9.785156-12.414063-16.390625-22.726563-16.40625h-88.945312c-10.3125.015625-19.464844 6.621094-22.726563 16.40625l-10.738281 32.195312c-19.53125 2.910157-34.003906 19.652344-34.0625 39.398438v48c0 4.417969 3.582031 8 8 8h8v16h-32v-192h256v192zm96 0h-48v-200c0-4.417969-3.582031-8-8-8h-272c-4.417969 0-8 3.582031-8 8v200h-48v-240h384zm-413.753906-256 4-16h435.503906l4 16zm415.503906-112 4 16h-395.503906l4-16zm0 0"/><path d="m176 344.5c13.253906 0 24-10.746094 24-24s-10.746094-24-24-24-24 10.746094-24 24 10.746094 24 24 24zm0-32c4.417969 0 8 3.582031 8 8s-3.582031 8-8 8-8-3.582031-8-8 3.582031-8 8-8zm0 0"/><path d="m304 344.5c13.253906 0 24-10.746094 24-24s-10.746094-24-24-24-24 10.746094-24 24 10.746094 24 24 24zm0-32c4.417969 0 8 3.582031 8 8s-3.582031 8-8 8-8-3.582031-8-8 3.582031-8 8-8zm0 0"/><path d="m400 208.5h16v32h-16zm0 0"/><path d="m64 208.5h16v32h-16zm0 0"/><path d="m216 320.5h48v16h-48zm0 0"/></svg>