<svg height="480pt" viewBox="0 0 480 480.00554" width="480pt" xmlns="http://www.w3.org/2000/svg"><path d="m480.003906 104.003906v-16h-88v-26.742187c.027344-10.617188-4.195312-20.800781-11.722656-28.289063l-20.6875-20.6875c-11.992188-11.996094-30.03125-15.585937-45.703125-9.09375-15.671875 6.492188-25.890625 21.785156-25.886719 38.75v46.0625h-16v-26.742187c.027344-10.617188-4.195312-20.800781-11.722656-28.289063l-20.6875-20.6875c-11.992188-11.996094-30.03125-15.585937-45.703125-9.09375-15.671875 6.492188-25.890625 21.785156-25.886719 38.75v46.0625h-167.99999975v16h167.99999975v142.867188c-2.609375.71875-5.296875 1.101562-8 1.132812-17.675781 0-32-14.324218-32-32h-16c0 17.675782-14.328125 32-32 32-17.675781 0-32-14.324218-32-32h-16c0 17.675782-14.328125 32-31.99999975 32v16c16.09765575-.011718 31.11718775-8.089844 39.99999975-21.519531 8.871094 13.4375 23.898438 21.519531 40 21.519531 16.101563 0 31.125-8.082031 40-21.519531 8.871094 13.4375 23.898438 21.519531 40 21.519531 16.101563 0 31.125-8.082031 40-21.519531 8.871094 13.4375 23.898438 21.519531 40 21.519531 16.101563 0 31.125-8.082031 40-21.519531 8.871094 13.4375 23.898438 21.519531 40 21.519531 16.101563 0 31.125-8.082031 40-21.519531 8.871094 13.4375 23.898438 21.519531 40 21.519531 16.101563 0 31.125-8.082031 40-21.519531 8.878906 13.429687 23.902344 21.507813 40 21.519531v-16c-17.675781 0-32-14.324218-32-32h-16c0 17.675782-14.328125 32-32 32-17.675781 0-32-14.324218-32-32h-16c0 17.675782-14.328125 32-32 32-5.636718-.03125-11.160156-1.566406-16-4.445312v-139.554688zm-176-62.0625c.003906-10.488281 6.324219-19.945312 16.011719-23.957031 9.691406-4.015625 20.847656-1.800781 28.265625 5.613281l20.691406 20.6875c4.511719 4.496094 7.046875 10.605469 7.03125 16.976563v26.742187h-72zm-120 0c.003906-10.488281 6.324219-19.945312 16.011719-23.957031 9.691406-4.015625 20.847656-1.800781 28.265625 5.613281l20.691406 20.6875c4.511719 4.496094 7.046875 10.605469 7.03125 16.976563v26.742187h-72zm104 142.0625h-104v-32h104zm-16 32c0 17.675782-14.328125 32-32 32-17.675781 0-32-14.324218-32-32h-16c-.027344 7.722656-2.871094 15.171875-8 20.945313v-36.945313h104v16zm16-80h-104v-32h104zm0 0"/><path d="m448.003906 328.003906h-16c0 17.675782-14.328125 32-32 32-17.675781 0-32-14.324218-32-32h-16c0 17.675782-14.328125 32-32 32-17.675781 0-32-14.324218-32-32h-16c0 17.675782-14.328125 32-32 32-17.675781 0-32-14.324218-32-32h-16c0 17.675782-14.328125 32-32 32-17.675781 0-32-14.324218-32-32h-16c0 17.675782-14.328125 32-32 32-17.675781 0-32-14.324218-32-32h-16c0 17.675782-14.328125 32-31.99999975 32v16c16.09765575-.011718 31.11718775-8.089844 39.99999975-21.519531 8.871094 13.4375 23.898438 21.519531 40 21.519531 16.101563 0 31.125-8.082031 40-21.519531 8.871094 13.4375 23.898438 21.519531 40 21.519531 16.101563 0 31.125-8.082031 40-21.519531 8.871094 13.4375 23.898438 21.519531 40 21.519531 16.101563 0 31.125-8.082031 40-21.519531 8.871094 13.4375 23.898438 21.519531 40 21.519531 16.101563 0 31.125-8.082031 40-21.519531 8.871094 13.4375 23.898438 21.519531 40 21.519531 16.101563 0 31.125-8.082031 40-21.519531 8.878906 13.429687 23.902344 21.507813 40 21.519531v-16c-17.675781 0-32-14.324218-32-32zm0 0"/><path d="m448.003906 432.003906h-16c0 17.675782-14.328125 32-32 32-17.675781 0-32-14.324218-32-32h-16c0 17.675782-14.328125 32-32 32-17.675781 0-32-14.324218-32-32h-16c0 17.675782-14.328125 32-32 32-17.675781 0-32-14.324218-32-32h-16c0 17.675782-14.328125 32-32 32-17.675781 0-32-14.324218-32-32h-16c0 17.675782-14.328125 32-32 32-17.675781 0-32-14.324218-32-32h-16c0 17.675782-14.328125 32-31.99999975 32v16c16.09765575-.011718 31.11718775-8.089844 39.99999975-21.519531 8.871094 13.4375 23.898438 21.519531 40 21.519531 16.101563 0 31.125-8.082031 40-21.519531 8.871094 13.4375 23.898438 21.519531 40 21.519531 16.101563 0 31.125-8.082031 40-21.519531 8.871094 13.4375 23.898438 21.519531 40 21.519531 16.101563 0 31.125-8.082031 40-21.519531 8.871094 13.4375 23.898438 21.519531 40 21.519531 16.101563 0 31.125-8.082031 40-21.519531 8.871094 13.4375 23.898438 21.519531 40 21.519531 16.101563 0 31.125-8.082031 40-21.519531 8.878906 13.429687 23.902344 21.507813 40 21.519531v-16c-17.675781 0-32-14.324218-32-32zm0 0"/></svg>