<svg height="480pt" viewBox="0 0 480.01158 480" width="480pt" xmlns="http://www.w3.org/2000/svg"><path d="m168 80.003906c13.253906 0 24-10.742187 24-24 0-13.253906-10.746094-24-24-24s-24 10.746094-24 24c0 13.257813 10.746094 24 24 24zm0-32c4.417969 0 8 3.582032 8 8 0 4.421875-3.582031 8-8 8s-8-3.578125-8-8c0-4.417968 3.582031-8 8-8zm0 0"/><path d="m304 32.003906h-80v48h80zm-16 32h-48v-16h48zm0 0"/><path d="m224 96.003906h32v16h-32zm0 0"/><path d="m272 96.003906h32v16h-32zm0 0"/><path d="m192 96.003906h16v16h-16zm0 0"/><path d="m128 96.003906h16v16h-16zm0 0"/><path d="m32 32.003906h32v16h-32zm0 0"/><path d="m32 64.003906h48v16h-48zm0 0"/><path d="m96 64.003906h16v16h-16zm0 0"/><path d="m440 272.003906h-104v-264c0-4.417968-3.582031-7.99999975-8-7.99999975h-320c-4.417969 0-8 3.58203175-8 7.99999975v464c0 4.421875 3.582031 8 8 8h448c10.703125.03125 20.125-7.042968 23.082031-17.328125 2.953125-10.289062-1.277343-21.285156-10.363281-26.941406 15.046875-15.425781 15.046875-40.03125 0-55.457031 7.015625-4.351563 11.28125-12.019532 11.28125-20.273438 0-8.25-4.265625-15.917968-11.28125-20.269531 11.183594-11.519531 14.378906-28.613281 8.113281-43.394531-6.269531-14.777344-20.777343-24.367188-36.832031-24.335938zm-424-256h304v160h-6.054688c-19.625.058594-38.453124-7.742187-52.289062-21.652344-16.832031-16.921874-39.734375-26.410156-63.601562-26.347656h-60.109376c-23.867187-.0625-46.769531 9.425782-63.601562 26.347656-13.835938 13.910157-32.664062 21.710938-52.289062 21.652344h-6.054688zm0 448v-272h6.054688c23.867187.066406 46.769531-9.421875 63.601562-26.34375 13.835938-13.910156 32.664062-21.710937 52.289062-21.65625h60.117188c19.625-.054687 38.453125 7.746094 52.289062 21.65625 16.832032 16.921875 39.726563 26.40625 63.59375 26.34375h6.054688v80h-18.222656c-.175782-.972656-.457032-1.910156-.648438-2.886718-.386718-1.894532-.800781-3.765626-1.265625-5.597657-.519531-2.136719-1.085937-4.25-1.710937-6.335937-.535156-1.832032-1.113282-3.640625-1.746094-5.433594-.703125-2.046875-1.453125-4.070312-2.253906-6.0625-.703125-1.761719-1.433594-3.503906-2.199219-5.226562-.875-1.949219-1.800781-3.855469-2.761719-5.757813-.855468-1.679687-1.71875-3.34375-2.640625-4.984375-1.039062-1.855469-2.136719-3.664062-3.253906-5.457031-.984375-1.601563-1.976563-3.152344-3.03125-4.6875-1.195313-1.753907-2.449219-3.449219-3.722656-5.136719-1.109375-1.480469-2.230469-2.960938-3.40625-4.390625-1.335938-1.601563-2.738281-3.199219-4.144531-4.800781-1.238282-1.375-2.464844-2.753906-3.753907-4.074219-1.476562-1.511719-3.015625-2.949219-4.558593-4.390625-1.34375-1.253906-2.671876-2.519531-4.0625-3.71875-1.601563-1.382812-3.28125-2.6875-4.960938-4-1.441406-1.128906-2.855469-2.273438-4.335938-3.34375-1.734374-1.25-3.535156-2.402344-5.335937-3.578125-1.519531-.992187-3.023437-2.015625-4.585937-2.941406-1.855469-1.113281-3.78125-2.105469-5.695313-3.128907-1.597656-.847656-3.152344-1.738281-4.800781-2.519531-1.992188-.960937-4.039063-1.800781-6.078125-2.664062-1.601563-.695313-3.238281-1.441407-4.902344-2.074219-2.136719-.796875-4.335937-1.480469-6.53125-2.183594-1.597656-.527344-3.246094-1.117187-4.910156-1.597656-2.335938-.65625-4.738281-1.152344-7.121094-1.679688-1.597656-.355468-3.128906-.800781-4.71875-1.074218-2.671875-.496094-5.402344-.800782-8.121094-1.144532-1.359375-.167968-2.695312-.421874-4.070312-.550781-4.089844-.375-8.25-.578125-12.449219-.578125-75.109375 0-136 60.890625-136 136 0 75.113282 60.890625 136 136 136 2.703125 0 5.464844-.109375 8.359375-.308594h.160156c.039063.320313.160157.605469.207031.917969.40625 2.761719 1.019532 5.484375 1.832032 8.152344.042968.136719.105468.265625.144531.398437.832031 2.535157 1.847656 5.003907 3.03125 7.394532.210937.421875.402344.863281.617187 1.277344 1.21875 2.324218 2.601563 4.558593 4.136719 6.691406.320313.4375.648438.871094.976563 1.300781 1.59375 2.121094 3.335937 4.125 5.214844 6 .054687.058594.097656.121094.152343.175781zm160.800781-127.199218c.136719.855468.335938 1.6875.511719 2.527343.433594 2.085938.984375 4.140625 1.65625 6.160157.269531.800781.519531 1.601562.800781 2.402343.953125 2.515625 2.085938 4.964844 3.390625 7.320313.078125.136718.128906.285156.207032.429687 1.421874 2.460938 3.027343 4.808594 4.800781 7.023438.503906.632812 1.046875 1.226562 1.601562 1.832031 1.375 1.597656 2.84375 3.113281 4.390625 4.546875.632813.582031 1.246094 1.167969 1.902344 1.71875 1.957031 1.65625 4.023438 3.171875 6.183594 4.542969.257812.160156.480468.359375.746094.511718l.207031.183594c-.871094.53125-1.734375 1.082032-2.582031 1.664063-1.496094.601562-3.015626 1.089843-4.527344 1.601562-1.066406.359375-2.121094.800781-3.203125 1.097657-1.640625.488281-3.3125.847656-4.976563 1.230468-1.0625.25-2.117187.558594-3.199218.800782-1.832032.351562-3.679688.574218-5.527344.800781-.925782.117187-1.839844.300781-2.777344.398437-2.78125.273438-5.585938.40625-8.40625.40625-48.601562 0-88-39.398437-88-88 0-48.597656 39.398438-88 88-88 2.59375 0 5.167969.128906 7.703125.347656.847656.070313 1.671875.214844 2.519531.308594 1.6875.195313 3.378906.394532 5.035156.679688.972657.171875 1.925782.402344 2.894532.609375 1.488281.3125 2.976562.625 4.441406 1.007812 1.015625.273438 2.007812.59375 3.007812.898438 1.375.414062 2.742188.796875 4.085938 1.308593 1.007812.363282 2 .800782 3 1.160157 1.296875.523437 2.585938 1.050781 3.847656 1.601562.976563.449219 1.945313.921875 2.90625 1.398438 1.230469.617187 2.445313 1.257812 3.648438 1.929687.9375.535156 1.867187 1.066406 2.789062 1.601563 1.167969.714843 2.320313 1.453125 3.449219 2.222656.886719.601563 1.769531 1.207031 2.632813 1.839844 1.109374.800781 2.191406 1.664062 3.261718 2.527343.800782.664063 1.648438 1.328126 2.449219 2.023438 1.054687.921875 2.070313 1.882812 3.082031 2.839844.75.722656 1.503906 1.425781 2.230469 2.167968 1.007813 1.035157 1.960937 2.121094 2.917969 3.203126.65625.742187 1.335937 1.46875 1.96875 2.238281 1 1.207031 1.929687 2.480469 2.863281 3.742187.511719.707032 1.066406 1.378906 1.5625 2.089844 1.128906 1.601562 2.175781 3.320312 3.199219 5.03125.238281.410156.511718.800781.75 1.191406 1.234375 2.132813 2.375 4.34375 3.425781 6.625.25.542969.457031 1.113282.695313 1.65625.800781 1.734375 1.511718 3.480469 2.167968 5.28125.304688.796875.542969 1.6875.800782 2.527344.425781 1.277344.800781 2.574219 1.207031 3.886719h-20.542969c-30.914062.035156-55.964844 25.085937-56 56 .027344 2.96875.296875 5.929687.800781 8.855469zm75.136719-102.191407c-.925781-1.269531-1.875-2.515625-2.859375-3.734375-.855469-1.066406-1.71875-2.113281-2.605469-3.144531-1.023437-1.175781-2.082031-2.328125-3.152344-3.457031-.9375-.992188-1.886718-1.96875-2.863281-2.917969-1.121093-1.089844-2.265625-2.128906-3.433593-3.203125-1.015626-.902344-2.03125-1.796875-3.078126-2.664062-1.210937-.992188-2.457031-1.933594-3.714843-2.871094-1.078125-.800782-2.160157-1.597656-3.269531-2.398438-1.296876-.898437-2.640626-1.730468-4-2.570312-1.136719-.710938-2.273438-1.429688-3.441407-2.09375-1.390625-.800782-2.816406-1.511719-4.246093-2.242188-1.183594-.605468-2.363282-1.230468-3.570313-1.789062-1.480469-.691406-3-1.289063-4.511719-1.90625-1.214844-.496094-2.398437-1.015625-3.65625-1.464844-1.597656-.574219-3.199218-1.054688-4.800781-1.550781-1.222656-.375-2.398437-.800781-3.664063-1.121094-1.71875-.460937-3.476562-.796875-5.238281-1.183594-1.183593-.246093-2.34375-.550781-3.542969-.800781-1.984374-.351562-4-.574219-6.03125-.796875-1-.121094-1.984374-.296875-2.992187-.386719-3.066406-.167968-6.152344-.3125-9.265625-.3125-57.4375 0-104 46.5625-104 104 0 57.441406 46.5625 104 104 104 3.007812 0 5.984375-.175781 8.960938-.429687.800781-.074219 1.597656-.160157 2.398437-.25.800781-.085938 1.695313-.140625 2.542969-.253907-.214844.429688-.335938.894532-.542969 1.335938-.835937 1.785156-1.578125 3.613281-2.222656 5.480469-.265625.757812-.519531 1.503906-.746094 2.269531-.640625 2.15625-1.15625 4.347656-1.535156 6.5625-.046875.296875-.160157.574219-.207031.871094l-.738282.070312c-2.78125.210938-5.429687.34375-7.957031.34375-66.273437 0-120-53.722656-120-120 0-66.273437 53.726563-120 120-120 3.679687 0 7.320313.1875 10.925781.515625 1.199219.109375 2.402344.328125 3.570313.46875 2.398437.289063 4.796875.570313 7.09375 1 1.417969.257813 2.785156.625 4.183593.9375 2.074219.457031 4.152344.894531 6.183594 1.457031 1.464844.40625 2.890625.910157 4.328125 1.367188 1.914063.609375 3.832031 1.207031 5.707031 1.902344 1.453126.546875 2.871094 1.175781 4.292969 1.777344 1.792969.753906 3.585938 1.496093 5.328125 2.335937 1.425782.679687 2.808594 1.441406 4.203125 2.175781 1.679688.886719 3.351563 1.777344 4.984375 2.738282 1.367188.796874 2.703125 1.679687 4 2.542968 1.597656 1.015625 3.148438 2.046875 4.671875 3.136719 1.292969.925781 2.558594 1.902344 3.820313 2.878906 1.472656 1.144531 2.929687 2.304688 4.347656 3.511719 1.222656 1.039062 2.398438 2.121094 3.582031 3.199219 1.359375 1.257812 2.703125 2.542969 4 3.863281 1.132813 1.144531 2.234375 2.3125 3.3125 3.503906 1.246094 1.371094 2.464844 2.773438 3.648438 4.203125 1.027343 1.242188 2.035156 2.5 3.015625 3.773438 1.128906 1.480469 2.214844 2.992187 3.28125 4.527343.917968 1.328126 1.824218 2.65625 2.695312 4 1.007813 1.601563 1.949219 3.203126 2.878906 4.800782.800782 1.402344 1.601563 2.808594 2.34375 4.25.871094 1.679687 1.671876 3.40625 2.464844 5.132812.671875 1.472656 1.359375 2.9375 1.976563 4.441406.726562 1.785157 1.375 3.609376 2.015625 5.433594.542968 1.527344 1.101562 3.039063 1.597656 4.597656.585938 1.882813 1.058594 3.816407 1.554688 5.738282.398437 1.597656.800781 3.101562 1.167968 4.695312.070313.34375.109375.695313.175782 1.03125h-16.191407c-.105469-.449218-.257812-.871094-.371093-1.320312-.34375-1.375-.742188-2.71875-1.132813-4.0625-.457031-1.601563-.921875-3.144532-1.457031-4.6875-.457032-1.328125-.960938-2.617188-1.464844-3.914063-.582031-1.503906-1.183594-3.007812-1.832031-4.472656-.558594-1.261719-1.167969-2.503906-1.777344-3.742187-.703125-1.433594-1.429687-2.847657-2.199219-4.242188-.664062-1.207031-1.359375-2.398438-2.070312-3.558594-.800782-1.351562-1.65625-2.6875-2.535156-4-.769532-1.097656-1.554688-2.199218-2.363282-3.304687zm188.0625 165.390625h-208c-1.242188.019532-2.480469.136719-3.703125.347656h-.050781c-4.753906.738282-9.175782 2.902344-12.679688 6.207032-4.84375 4.507812-7.585937 10.832031-7.566406 17.445312 0 13.257813 10.746094 24 24 24h224c4.417969 0 8 3.582032 8 8 0 4.421875-3.582031 8-8 8h-224c-22.105469-.023437-40.007812-17.957031-40-40.0625 0-.128906.039062-.757812.046875-.886718.039063-1.554688.164063-3.101563.378906-4.640626.0625-.488281.199219-.953124.277344-1.433593.183594-1.039063.351563-2.070313.617187-3.085938.152344-.601562.375-1.167969.558594-1.761719.265625-.863281.511719-1.734374.800782-2.582031.242187-.632812.550781-1.226562.800781-1.839843.34375-.800782.664062-1.546876 1.046875-2.289063.382812-.742187.730468-1.230469 1.097656-1.847656.367188-.617188.800781-1.375 1.238281-2.039063.441407-.664062.90625-1.203125 1.367188-1.792968.464843-.59375.914062-1.230469 1.417969-1.816407.503906-.585937 1.0625-1.121093 1.597656-1.679687.539062-.558594 1.042968-1.105469 1.601562-1.601563.558594-.496093 1.207032-1.015625 1.824219-1.519531s1.054687-.878906 1.601563-1.289062c4.058593-1.726563 8-3.71875 11.796874-5.957032 1.289063-.402344 2.601563-.679687 3.90625-.953125.625-.128906 1.230469-.320312 1.855469-.414062 2.039063-.332031 4.101563-.5 6.167969-.507813h208c13.253906 0 24 10.746094 24 24 0 13.257813-10.746094 24-24 24h-208c-4.417969 0-8-3.578125-8-8-.039062-1.320312.335938-2.621094 1.070312-3.71875.28125-.496094.613282-.964844.992188-1.390625 1.992188-.929687 4-1.863281 5.914062-2.878906h208.023438c4.417969 0 8-3.582031 8-8 0-4.421875-3.582031-8-8-8zm0-96h-208c-13.253906 0-24 10.746094-24 24 0 13.257813 10.746094 24 24 24h224c4.417969 0 8 3.582032 8 8 0 4.421875-3.582031 8-8 8h-224c-22.089844 0-40-17.90625-40-40 .027344-22.078125 17.917969-39.972656 40-40h208c13.253906 0 24 10.746094 24 24 0 13.257813-10.746094 24-24 24h-208c-4.417969 0-8-3.578125-8-8 0-4.417968 3.582031-8 8-8h208c4.417969 0 8-3.578125 8-8 0-4.417968-3.582031-8-8-8zm0 0"/><path d="m384 240.003906h16v16h-16zm0 0"/><path d="m368 224.003906h16v16h-16zm0 0"/><path d="m400 224.003906h16v16h-16zm0 0"/><path d="m384 208.003906h16v16h-16zm0 0"/><path d="m448 176.003906h16v16h-16zm0 0"/><path d="m432 160.003906h16v16h-16zm0 0"/><path d="m464 160.003906h16v16h-16zm0 0"/><path d="m448 144.003906h16v16h-16zm0 0"/></svg>