<svg height="480pt" viewBox="0 -48 480 480" width="480pt" xmlns="http://www.w3.org/2000/svg"><path d="m472 224h-24v-216c0-4.417969-3.582031-8-8-8h-32c-4.417969 0-8 3.582031-8 8v216h-320v-216c0-4.417969-3.582031-8-8-8h-32c-4.417969 0-8 3.582031-8 8v216h-24c-4.417969 0-8 3.582031-8 8v144c0 4.417969 3.582031 8 8 8h464c4.417969 0 8-3.582031 8-8v-144c0-4.417969-3.582031-8-8-8zm-56-208h16v208h-16zm-368 0h16v208h-16zm416 352h-448v-128h448zm0 0"/><path d="m210.34375 114.34375 11.3125 11.3125c10.140625-10.109375 26.546875-10.109375 36.6875 0l11.3125-11.3125c-16.390625-16.347656-42.921875-16.347656-59.3125 0zm0 0"/><path d="m293.65625 90.34375c-29.660156-29.566406-77.652344-29.566406-107.3125 0l11.3125 11.3125c23.414062-23.320312 61.273438-23.320312 84.6875 0zm0 0"/><path d="m317.65625 66.34375c-42.886719-42.890625-112.425781-42.890625-155.3125 0l11.3125 11.3125c36.664062-36.578125 96.023438-36.578125 132.6875 0zm0 0"/><path d="m240 16.230469c33.902344-.089844 66.4375 13.386719 90.34375 37.425781l11.3125-11.3125c-56.140625-56.144531-147.171875-56.144531-203.3125 0l11.3125 11.3125c23.90625-24.039062 56.441406-37.515625 90.34375-37.425781zm0 0"/><path d="m88 272.800781v-16.800781h-16v16.800781c-20.121094 4.105469-33.863281 22.78125-31.796875 43.210938 2.0625 20.429687 19.261719 35.980469 39.796875 35.980469s37.734375-15.550782 39.796875-35.980469c2.066406-20.429688-11.675781-39.105469-31.796875-43.210938zm-8 63.199219c-11.675781.023438-21.664062-8.378906-23.644531-19.886719-1.976563-11.507812 4.632812-22.761719 15.644531-26.640625v22.527344h16v-22.527344c11.011719 3.878906 17.621094 15.132813 15.644531 26.640625-1.980469 11.507813-11.96875 19.910157-23.644531 19.886719zm0 0"/><path d="m200 272h-48c-4.417969 0-8 3.582031-8 8v48c0 4.417969 3.582031 8 8 8h48c4.417969 0 8-3.582031 8-8v-48c0-4.417969-3.582031-8-8-8zm-8 48h-32v-32h32zm0 0"/><path d="m280 272h-48c-4.417969 0-8 3.582031-8 8v48c0 4.417969 3.582031 8 8 8h48c4.417969 0 8-3.582031 8-8v-48c0-4.417969-3.582031-8-8-8zm-8 48h-32v-32h32zm0 0"/><path d="m360 272h-48c-4.417969 0-8 3.582031-8 8v48c0 4.417969 3.582031 8 8 8h48c4.417969 0 8-3.582031 8-8v-48c0-4.417969-3.582031-8-8-8zm-8 48h-32v-32h32zm0 0"/><path d="m392 272c-4.417969 0-8 3.582031-8 8v48c0 4.417969 3.582031 8 8 8h48c4.417969 0 8-3.582031 8-8v-48c0-4.417969-3.582031-8-8-8zm40 48h-32v-32h32zm0 0"/></svg>